<svg width="194" height="41" fill="none" xmlns="http://www.w3.org/2000/svg">
    <path d="M12.002 40.394H3.259a3.014 3.014 0 0 1-2.944-1.657A3.034 3.034 0 0 1 0 37.59V2.874A3.034 3.034 0 0 1 1.046.79 3.02 3.02 0 0 1 3.259.07h8.743l1.608 5.959h-.657A4.745 4.745 0 0 0 8.757 3.91H5.399c-1.105 0-1.398.884-1.398 1.823v28.968c0 .94.307 1.837 1.398 1.837h3.358a4.748 4.748 0 0 0 4.196-2.146h.657l-1.608 6.001ZM32.494 40.395h-9.791a2.191 2.191 0 0 1-1.974-1.46 2.208 2.208 0 0 1-.124-.854V2.145A2.036 2.036 0 0 1 21.873.246c.25-.101.518-.152.788-.148h9.791a2.11 2.11 0 0 1 1.497.58c.403.384.64.91.657 1.467v35.936a2.247 2.247 0 0 1-.6 1.603c-.404.433-.962.689-1.554.71h.042ZM30.55 5.244c0-.687-.308-1.304-1.05-1.304h-3.762a1.145 1.145 0 0 0-1.07.826 1.152 1.152 0 0 0-.035.478V35.5a.941.941 0 0 0 1.05 1.066h3.874c.685 0 .993-.364.993-1.066V5.244ZM52.525 40.394v-.252a2.963 2.963 0 0 0 .615-2.061 39.442 39.442 0 0 0-1.678-9.927L47.055 11.02h-.097l-.308 25.855a9.522 9.522 0 0 0 1.203 3.267v.252h-5.931v-.252a5.21 5.21 0 0 0 .951-2.426c.364-6.618.308-13.292.476-19.91.098-4.893.461-9.814.461-14.666A5.73 5.73 0 0 0 42.93.252V.098h6.392v.154c-.363.785.154 5.202.994 8.777l3.455 14.554h.154V4.346a10.83 10.83 0 0 0-.938-4.094V.098h4.98v.154a7.025 7.025 0 0 0-.727 4.094v32.108c0 1.052.154 3.043.993 3.688v.252h-5.707ZM80.725 6.057a5.683 5.683 0 0 0-4.518-2.118H74.64v33.258c0 .828 0 2.356.63 2.945v.252h-5.344v-.252c.574-.533.616-1.963.616-2.692V3.94h-1.51a5.668 5.668 0 0 0-4.52 2.117h-.657l1.553-5.96H79.83l1.594 5.96h-.699ZM97.426 40.394v-.154a2.119 2.119 0 0 0 .475-1.682c0-1.739-3.413-13.713-4.35-16.237h-2.308v14.75a6.012 6.012 0 0 0 .784 3.155v.21h-6.183v-.21a5.863 5.863 0 0 0 1.622-2.804V2.986a4.087 4.087 0 0 0-.839-2.678v-.21h7.917c6.351 0 7.232 6.099 7.232 11.132 0 3.632-1.203 8.105-4.504 10.096 1.469 4.458 3.721 15.493 6.392 18.858v.21h-6.238ZM93.593 3.94h-2.35v14.554h2.462c3.413 0 3.93-5.103 3.93-7.627 0-2.945 0-6.927-4.042-6.927ZM119.597 40.394v-.252a1.404 1.404 0 0 0 .573-1.164s-.153-1.682-.251-2.622a251.383 251.383 0 0 0-.588-5.678h-6.127c-.265 1.99-.629 4.038-.839 6.043-.112.785-.168 2.355-.168 2.355.064.414.272.792.588 1.066v.252h-6.029v-.252a2.95 2.95 0 0 0 .993-2.005L113.26 1.36a2.2 2.2 0 0 0-.363-1.052v-.21h7.581v.21a1.826 1.826 0 0 0-.322 1.052s3.987 33.524 4.407 36.777a2.801 2.801 0 0 0 1.049 2.005v.252h-6.015ZM116.506 5.72h-.224c-.896 6.618-1.833 14.82-2.63 21.48h5.301c-.895-6.617-1.72-14.862-2.461-21.48M144.707 40.395h-13.988v-.154a6.349 6.349 0 0 0 1.51-4.207V3.786A5.095 5.095 0 0 0 130.915.21V0h6.35v.21a5.909 5.909 0 0 0-1.049 3.576v32.683h4.714c1.651 0 2.588-3 3.063-5.86h.812v7.164c0 .743.154 1.402.154 2.16 0 .21 0 .364-.308.364M166.039 2.621v35.053c0 .953-.476 2.734-1.567 2.734h-10.757c-1.105 0-1.72-1.78-1.72-2.734V2.621a3.769 3.769 0 0 0-.798-2.37V.098h5.4v.155a1.961 1.961 0 0 0-.574 1.402v34.015c0 .365 0 .953.574.953h4.77c.531 0 .587-.588.587-.953V1.626a1.91 1.91 0 0 0-.531-1.402V.069h5.399v.155a3.749 3.749 0 0 0-.783 2.37M179.452 36.567h4.728c1.651 0 2.588-3 3.063-5.861h.966v9.688h-15.625v-.252c0-.435 2-7.473 2.21-8.202 2.518-9.352 5.078-18.662 7.652-28.043h-4.043a5.583 5.583 0 0 0-4.518 2.132h-.7l1.609-5.973h12.995v.266c0 .154-1.735 6.506-1.93 7.193-2.63 9.674-5.246 19.335-7.918 29.01l1.511.042ZM191.495.27a1.65 1.65 0 0 0-1.214.506 1.663 1.663 0 0 0-.501 1.217c0 .48.166.888.498 1.226.334.337.74.506 1.217.506.478 0 .883-.169 1.217-.506.334-.338.501-.747.501-1.226 0-.475-.167-.881-.501-1.217a1.653 1.653 0 0 0-1.217-.506Zm2.002 1.723a1.94 1.94 0 0 1-.586 1.419c-.39.392-.862.588-1.416.588a1.914 1.914 0 0 1-1.413-.588 1.94 1.94 0 0 1-.58-1.419c0-.55.195-1.02.585-1.41A1.92 1.92 0 0 1 191.495 0c.554 0 1.026.194 1.416.583.39.388.586.858.586 1.41Zm-1.479-.435c0-.16-.049-.267-.147-.322-.096-.054-.252-.081-.466-.081h-.329v.795h.348c.164 0 .286-.017.368-.05.151-.06.226-.174.226-.342Zm-.561-.668c.272 0 .472.027.599.08.227.094.34.279.34.555 0 .196-.071.34-.215.433a.834.834 0 0 1-.318.106.535.535 0 0 1 .378.215c.08.116.12.23.12.34v.161c0 .051.002.105.005.163.004.059.01.097.02.115l.013.027h-.362a.49.49 0 0 1-.011-.046l-.008-.071v-.174c0-.254-.069-.422-.207-.504-.082-.047-.225-.07-.43-.07h-.305v.865h-.387V.89h.768Z" fill="#000"/>
</svg>