<svg width="565" height="308" fill="none" xmlns="http://www.w3.org/2000/svg"><g clip-path="url(#a)" fill="#00B2B0"><path d="M469.256 227.701c.069.797.225.347.19-1.846l-.259-1.558.069 3.404Zm.484-14.74c-.127-2.579-.352-5.55-.588-3.883.254 2.55.144 3.173.444 5.919.029 2.193-.086 3.825-.179 3.456.069.779-.057 3.41.104 4.587.202-2.856.208-6.468.046-10.247.058-.807.127-.023.173.162v.006ZM467.018 1.392l1.223.035c-.335-.012-.75-.023-1.223-.035ZM349.571 1.23c.894-.005 1.269-.034 1.315-.063-.831.017-1.512.035-1.315.064V1.23ZM329.516.902c.433.005.791.011 1.183.017a9.32 9.32 0 0 0-1.183-.017Zm137.501.49-3.139-.092c-.219.098 1.61.069 3.139.092Zm2.094 182.018c.012.744.035 1.362.069 1.927-.011-.612-.017-1.2-.028-1.812-.012-.034-.029-.063-.041-.115Zm1.252-126.2v1.08c.041.311.075.611.104.894l-.104-1.973v-.001Zm.041 44.915c.012-1.015-.213-1.367-.311-1.759.092.571.132 1.327.15 2.215.04.017.092-.115.156-.456h.005Zm-.392 71.217.028 1.264c-.005-.329-.023-.883-.028-1.264Zm.397-148.284c.035-.075.064-.236.081-.41-.029 0-.052.162-.081.41Zm-46.685 201.466v.047c.23-.023.3-.041 0-.047Z"/><path d="m469.779 227.771-.641.011c-.069.046-.138.092-.138.139l.779-.156v.006ZM292.814.584h.162c.963-.028.421-.023-.162 0ZM.359 53.08c.196-4.316.254 7.021.473.525-.086.606-.346-5.902-.473-.525Zm.473.525.024-.67c-.01.223-.018.447-.024.67ZM208.26.734c.173.047.508.075.86.11-.029-.023-.225-.058-.86-.11Zm62.996.358-1.557-.035c.617.012 1.119.024 1.557.035Zm-95.702-.006c-.848-.017-1.137-.052-2.291-.017.11.012.214.017.352.029.421-.035.975-.052 1.939-.012Zm-34.046 0c.179.012.421.035.629.052.335 0 .733-.011 1.079-.011l-1.708-.035v-.006Zm178.753 225.56c.744.069 1.211.15 1.569.225-.525-.179 4.477-.243-1.569-.225Zm148.977-43.253c-.058-.225-.087-.554-.098-1.143 0 .445.005.866.011 1.281.035.11.064.139.087-.138ZM174.168 3.065l-5.406-.034c1.511.011 3.479.023 5.406.034ZM76.03 226.68l1.24-.029c-.478 0-.917 0-1.24.029ZM152.706 3.065a54.268 54.268 0 0 0-3.046-.173c-.225.017-.479.035-.629.064l3.675.11v-.001Z"/><path d="M357.47 226.276c-5.152-.005-2.423.323-3.513.514-6.151.092-2.845-.242-4.939-.41-3.842.087-6.785.393-9.652.375-.214-.052-.773-.075-.115-.144-4.062.26-12.053.012-16.784.34a4.007 4.007 0 0 1-.617-.08c.767.167.883.334.727.45-2.308 0-4.287.207-5.158-.006 1.414.006 1.535-.081 2.198-.15l-2.423.092c-2.181-.311 3.306-.109 3.306-.334-4.719.098-10.223.357-13.841.271-.755-.306 8.458-.104 3.635-.37l5.596.116c-4.275-.479 3.398.034-.53-.479-7.368-.087-8.239.156-15.589.063-1.656.168.548.249-1.108.416-10.443.3-8.221-.762-15.9-.358-1.985.202-2.758.589-8.228.381l1.864-.34c-7.131-.035-4.073.49-11.539.259 1.327-.133 5.602-.115 4.523-.156-4.84-.271-3.421.197-7.142.197l-.773-.306c-7.593.098-15.958.213-24.364.323.467-.092 1.904-.185-.064-.277-10.604.15-22.639-.035-32.868-.219l-3.906.259c-.905 0-1.684-.115-.703-.167-3.987-.098-.208.167-2.124.271-2.267.017-2.994-.15-1.557-.231-7.033.22-20.043.479-27.451.197l1.442-.081c-5.769-.104-6.513.536-11.867.294l1.027-.046c-12.526-.116-26.372.127-35.932-.271-1.817.375-12.398-.168-13.206.357-7.154-.259-5.106-.357-15.18-.53-2.688-.023-4.009.328-7.338.38l-.08-.277-4.518.289-2.406-.329-3.121.069c1.24.018 2.642.121 2.452.202-2.435.064-5.406.012-7.783-.069-2.377-.081-4.16-.196-4.217-.265l-11.528.23c.254-.109 2.187-.15 3.716-.219-6.156.283-1.12-.288-6.756-.034.756.063-.41.161-.537.219-2.81-.168-9.208-.168-13.944-.098l.911-.191c-8.55.029-18.029.058-27.63.087 3.445.086 2.655.415-.16.45l-1.126-.289c-1.817.179 2.943.11-.79.329-3.583-.034-2.412-.329-.352-.427l-4.362.104c-.254-.086.768-.133 1.033-.242-.462.046-1.177.052-2.037.034l-1.378-.034c-.34-.006-.214-.012-.277-.023l-.064-.023.017-.087v-.034l.012-.018v-.196c.006-.542.012-1.073.012-1.581 0-1.015-.03-1.938-.099-2.648l.075-.277c-.046-10.846-.063-15.762-.098-24.6-.225-.173-.173-3.629-.352-6.26.07-6.491.249-13.697.225-21.52-.11-5.498-.19-1.604-.323-4.079.202-.404.185-8.215.33-4.165-.035-9.387-.041-11.995-.203-23.868-.08 1.286-.12 2.74-.19 1.984-.035-2.152.086-4.904.185-4.592l.023.571c-.306-13.327.588-30.762.167-41.378l.023.595-.22-11.008c.035-5.066.15 3.034.278-.71-.34-11.874.046-18.756-.18-28.535.595-7.57-.04-26.857.341-37.074l-.138.588c-.139-2.636.08-3.196.115-5.14-.11.277-.127 2.867-.202 1.223-.011-3.543-.029-7.125-.046-10.772 8.02.052 16.195.11 24.393.168 8.498.086 17.014.173 25.397.26 7.42.04 4.211-.82 13.563-.445l-2.653.294c14.971-.352 30.618.012 45.272-.288-.871.069-.9.156-2.331.156 1.546.11 4.408.11 6.889.063 1.24-.035 2.382-.075 3.225-.098.836-.04 1.373-.087 1.384-.127 2.285.017.531.156 1.933.248 3.104.127 7.795-.271 9.445-.063.282.034-.872.069-1.443.086 2.025-.104 9.427.029 7.489-.22 5.504.116 10.523-.109 14.914.036 2.861-.277 9.415.132 10.327-.26-.392.404 9.646.323 13.125.138-1.165.122 3.023.127 1.662.295 3.969 0 7.61-.081 6.917-.289 7.316.485 14.701-.386 18.814.23 11.793-.16 22.703-.31 33.313-.455-.381.404-11.724.04-11.268.462 10.062-.168 15.866-.514 25.847-.416 2.584.058-1.466.173-2.337.243 10.05-.168 19.437.034 28.38-.185-.023.035-.993.08-1.904.11 1.765-.012 4.102.057 3.9-.127l-1.719.052c-2.816-.266 6.998-.554 7.315-.699-2.994.526 8.833.133 4.085.797 1.159-.035 2.613-.121 2.348-.243 1.719.035 2.267.11.519.248 6.312-.098 4.073-.294 9.791-.288-.023.087-1.177.121-1.766.225 2.897-.173 5.81-.346 10.639-.271-.288.052.271.121-1.171.121 8.302-.029 14.152-.462 23.262-.294-2.688.386 3.098.127 3.583.461l4.898-.098-1.967-.161c4.292 0 8.083-.237 11.769-.127l-3.19.138 8.042-.063-4.552-.127c4.339-.173-.467-.421 5.245-.329-1.16.035 4.292 0 6.53.202h-.017c2.123-.104 4.304-.22 7.477-.133.825.104-.663.37-.127.439 2.095-.277 10.051-.075 12.699-.375-.883.069-.929.242-.641.282l1.76-.225c1.99.075 2.279.11 1.956.248 5.977.04-1.898-.42 5.198-.242-.56.017-.288.052-1.454.087 7.125.092 13.772-.145 20.32-.035 1.933.335-5.723.08-3.508.364 9.445-.064 19.552-.404 28.685-.324l-1.702-.034c1.264-.473 6.803.236 11.424.011-1.131.035-1.483.266-1.177.208 6.26.075 12.791-.115 22.275-.265l-1.177.12 3.583.064c1.148.006 2.371.012 3.583.023a3205.42 3205.42 0 0 0-.029 6.202c.11 1.339.092 3.912.248 2.349-.611 13.88.329 26.481-.184 38.799 0-1.472-.093-3.508-.093-2.337l.098 10.494c.185-.83.11-1.373.254-3.577.11 1.327.191 4.287.191 6.89-.122-4.72-.295.04-.393 2.076.058-.34.116.358.173.185-.323 5.48.37.917.15 8.4l-.098-.398c.046 2.798.173 5.383.15 8.4-.213 1.252-.098-2.983-.271-3.173.012 4.24.398 8.371.191 12.208-.035-1.806-.087-4.39-.116-6.197-.248 4.183-.185 4.668-.225 7.772v-.306l-.104 7.183.069-1.829c.549 5.308.099 10.812.462 17.96-.34-6.952-.196-1.148-.438-1.679-.07 1.823-.139 4.604-.208 3.814.19 3.381-.15 5.642.133 10.413-.075.214-.006 3.618-.202 2.851.057 4.396.132-1.039.23-.67.266 6.774-.317 15.918.041 25.662.15 8.401.409 9.953.536 17.753-.121 2.631-.282-2.152-.282-2.152-.116 4.246-.093 7.437 0 11.441-.07-.808-.127.023-.214 1.246.023 3.207.283 2.146.167 6.381-.086-.727-.224-1.656-.311-3.208.092 3.779.185 7.523.283 11.435-.133 1.038-.202-2.366-.295-3.745.058 4.402.122 11.406.335 12.762l.075-2.821c.012 1.604-.185.825-.219-.358-.167-3.773.075-5.44.15-5.654l.052 2.787c.45-2.867-.075-11.204-.046-16.818l.328 2.343-.271-5.758c.087-1.223.271-2.06.318.709.161-4.027-.116-3.565.063-7.021.029-.381.046-.208.058.144l-.098-3.934c.069.773.23-.652.184 1.759.191-7.061-.248-11.383 0-14.042l.023.588c-.109-9.791-.242-.946-.525-8.29l.595-4.945-.243-.963c.012-1.01.029-3.012.121-2.637-.167-3.762-.103.64-.259-1.54.219-4.864-.104-13.408.283-14.505-.185-1.748-.139 4.651-.272-.542.416-1.483-.069-6 .122-10.442.213 1.361.098 5.573.288 1.125-.358-2.683.081-8.649.012-12.399-.289-.179-.122-8.146-.214-14.435.098.398.156-11.833.26-17.683l.046.173c-.289-1.13-.237-7.165-.294-11.562.173.173.242.964.317 3.34v-4.13c-.092-.975-.144-2.262-.179-4.944l.219 1.038c-.011-5.498-.254-11.071-.109-18.144-.202-.399-.566 5.625-.698-1.852.109-.277.294-.554.34 1.401-.017-.64-.092-2.284-.046-3.576l.184 2.988c.081-3.22-.155-1.685-.138-4.258.156.052.11-1.91.237-1.535.017.658-.064 2.245 0 3.231.028-2.902.121-6.415.236-7.575-.086.254-.208 0-.231-2.129-.011-5.498.191-1.88.266-5.088-.11-1.333 0-4.84-.231-4.933 0-1.61.11-1.904.173-2.527l-.058-3.964c-.017-1.817-.029-3.755-.04-5.192-1.166.017-2.031.035-2.216.07-.271.034-.196.074.381.132l.791.017c-.15 0-.329.006-.514.012-8.337.26-17.164-.15-25.368-.035l.012-.086c-4.887.098-10.875.057-14.366.248-1.442 0-3.41-.162-2.792-.266-3.733.064-4.154.168-9.549.018 3.756-.156-1.298-.139 3.849-.116-4.853-.075-5.954-.22-11.164.023 1.771-.225-3.652-.282-5.96-.219l3.398.162c-2.596.034-4.863.011-7.165-.006l1.246-.294c-9.929-.364-17.914.617-25.472.011-2.625.208 5.394.144 3.046.387-4.569-.04-9.329-.468-10.76-.468-6.259-.167-5.838.433-12.386.323.836.104 1.627.387-3.266.49-4.575-.04-5.619-.443-2.735-.53 1.097-.012 1.627.023 1.581.063 1.477-.04 3.416-.086 1.604-.196l-.594.104c-2.267-.11-8.556-.098-7.079-.271-3.456.098-1.477.173 1.085.23-5.862-.155-9.162 0-15.197-.109.958.058 1.846.185.888.185-8.855-.133-3.9.202-9.894.248-3.41-.162 1.223-.387-4.817-.248-3.687-.11-.779-.283.686-.37-5.504.202-10.281-.132-13.419-.173l2.896-.086c-1.731.052-3.15.052-4.598.046l1.655.214c-1.702-.035-3.144-.04-3.109-.127-1.754.138 1.344.352-2.135.542-2.267-.11-6.906.115-7.69-.167 7.136.098-.791-.283 5.25-.33a87.95 87.95 0 0 1-4.293 0c-.254-.028.243-.057.704-.074-6.825-.254-3.138.317-10.212.311.9-.155-1.638-.3-2.792-.265 2.85 0 1.361.265-1.252.386-4.535-.12-4.933.093-7.304.075l2.712.058c-.918.156-3.185.139-6.353.185-.271-.121 2.874-.087 1.743-.139-3.514.277-7.933-.288-12.831-.098-2.268-.11-.219-.3-2.21-.369-5.487.208-5.942-.22-11.712-.046 1.662.213 1.95.161-2.106.37l9.479-.15-6.086.31c2.861 0 6.04-.132 7.754-.097-2.896.173-2.602.12-1.229.3-3.917-.318-7.76.184-12.289-.03l.139-.524c-6.802-.237-12.087.27-20.926.138l2.839.092c-1.183.208-5.458.03-8.314.116.265-.179-1.523-.242-2.746-.352.15.133-6.468-.012-7.27.34l-3.946-.23c-7.137-.093-8.14.501-15 .444 2.065-.19-1.05-.318 3.542-.456-2.29 0-4.35-.035-4.385.087-1.338-.11-6.352.236-8.452.069-.963.075-1.28.26-3.854.248-.282-.035.012-.087.012-.087-.012.087-4.027.121-1.777.312-7.056-.548-19.714.04-25.853-.433-4.996.04-11.019.092-15.554.127.289-.052.018-.086.871-.07-6.259-.16-3.848.509-10.967.324-3.641-.283 3.779-.156 1.511-.26-.986-.582-8.596.081-13.385-.26l1.16-.034c-3.663-.196-8.937.22-14.92.179 0 0 .289-.052.035-.087-4.09.295-11.839.393-17.597.473 1.789-.225 2.614-.12 1.524-.351-2.58.034.755.37-4.397.432-1.673-.127-5.388-.23-5.884-.479l4.857-.011c-2.486-.317-6.288.011-8.85-.046l.33-.139c-7.45.046-7.553.398-15.555.37l.825.103c-4.373.346-3.67-.196-8.031.064l-1.321-.352c-2.885.086-10.108.34-15.283.41 2.93-.26 8.988-.393 12.738-.549-2.861 0-9.72.023-11.21.202 1.154-.034 2.608-.12 3.745-.063-3.508.277-8.13.415-13.83.41.33-.226-1.142-.318-3.42-.364-2.453-.017-5.77-.046-8.88-.07-.005 1.11-.017 2.2-.023 3.244C.6 5.131.588 5.904.577 6.625.542 8.06.485 9.267.404 10.075c.225 11.4-.098 22.616-.058 35.897.473-4.708.012 3.877.496 3.064.03 3.092.023 4.275-.005 4.552l-.289 9.375C.41 65.184.444 60.02.335 60.303.3 67.076.127 63.147 0 67.625c.173-.918.248 2.353.179 6.213l.225-5.435c.26 9.468-.404 8.181-.15 17.724l-.15-3.017c.092 4.898 0 18.058.386 22.858-.057.865-.19 2.007-.225-.145-.057 11.701.416 26.043.173 35.136l-.115-.889c.035 2.181.22 3.802.104 6.531-.046-.138-.115-.877-.127.133.04 1.154.208 5.798.138 8.689l-.132-2.47c-.156 11.412.323 17.516.404 27.088-.347-.023-.462 8.954-.52 13.437l-.052-.156a830.3 830.3 0 0 0 .139 17.573c.092 5.712.179 11.291.277 17.614.213 0 .456 0 .704-.006.98.035 2.123.081 3.41.133 1.107.023 2.336.052 3.651.081 2.631.023 5.626.046 8.741.069 6.237.023 12.987.017 18.416.139-1.662-.07.271-.306 2.204-.347 2.55.081 7.044-.271 6.64.087h-.911c1.92.346 7.16.254 11.25.26l.675-.474c10.696.687 28.028-.253 33.872.364 2.585-.075 5.775-.162 8.337-.237l-.139.254c7.154.064 10.726.098 19.564.035l-1.8.179c4.985.017 6.295-.727 10.899-.745l1.384.375c8.7-.005 17.504.324 26.107-.017-.139.058-.399.162-1.806.179 4.096.012 15.842.254 14.354-.26.104.335 8.977.035 13.673-.115l-.732.248c3.963-.317 4.09-.404 9.629-.49 1.315.034 1.148.202-.595.138 4.374.133 3.41-.236 8.712-.104l-1.973.162c4.5.017 4.142-.064 6.618-.254 2.827-.098 8.538.063 9.202.288.605-.138 3.069-.323 5.723-.253.358.086-.606.138-1.096.161 7.523.167 11.187-.288 16.362-.046.109.081.444.121.871.15-3.446-.014-6.893-.026-10.339-.035 0 .231 4.829.272.987.589 3.877-.173 10.506-.548 15.208-.439.231.023.45.047.623.081l-.485.023c1.085.023 2.06 0 2.977-.034 1.5.028 2.458.04 3.9.069.554.19 5.539.104 7.945.109-.202-.253 2.954-.207 0-.415.381.017-.456.029-2.054.04-.364.012-.785.018-1.027.029.046-.005.104-.011.161-.023-1.58 0-3.64.012-5.982.018 1.903-.127 3.888-.237 6.554-.099 1.24-.15 2.602-.311 3.363-.403 3.294.352 9.647.536 10.529.755 7.35-.138 17.32-.092 21.941-.565 2.089-.063 2.406.133 3.185.208-1.206.046-2.643.04-3.294.109 4.177-.121 12.381-.046 13.379-.375 5.267.15-2.96.306 4.275.248l-.975.098c14.239.525 23.147-.842 38.932-.167-1.097-.04-1.639-.063-1.864-.115 17.995.3 37.086-.277 54.844.19 5.048.092 5.596-.115 8.677-.277l1.096.271 5.267-.311c7.472-.231 12.935.663 22.391.231l-1.217-.179c3.398.034 10.76-.11 10.189.104.346-.035 1.113-.191 2.44-.093l.104.139 8.342-.243c6.468.104-1.009.56 8.424.589 3.508-.052 9.992-.41 8.671-.508-1.413-.006-3.617-.086-3.721-.231l3.208-.075c.582-.415 3.046-.842-4.829-1.13l-5.487.253-1.765-.201 4.621-.012c-2.619-.19-4.281-.023-6.139.092-.438-.109-1.211-.184-2.302-.219l-5.388.398c-.652-.161 2.417-.323-1.2-.409-2.522.184 2.423.363-1.76.484-2.625-.19-1.858-.34-4.939-.179-.432-.109.22-.173 1.443-.225-2.746.127-7.258.052-8.677.277-2.735-.231-9.26.064-8.989-.334-.86.092-4.829.311-7.35.323 4.604-.473-9.433-.029-8.216-.531-3.404.421-12.306.19-18.341.421.335-.035.998-.104 1.535-.081-3.398-.034-4.385-.161-6.566-.242-.438.352-5.723.433-8.579.646-4.159-.334 2.527-.409 1.223-.733.208.283-7.234.283-5.815.52-3.185-.208-2.746-.104-4.385-.393-.559.439-2.965.075-5.608.341-4.609-.214-1.188-.41-6.248-.277-2.406-.133 2.094-.289 2.094-.289h-.017Zm-120.372.756c1.039-.011 1.921-.017 2.487-.017-.52 0-1.235.011-2.487.017Zm-10.114 0c1.229 0 2.764.006 4.391.012.358.086-.029.179-1.044.173.553-.058-1.835-.11-3.341-.179h-.006v-.006Zm21.399 1.731c-1.598.035-2.135-.012-2.36-.063.756-.006 1.639-.018 2.798-.029.047-.006.139-.023.191-.029-.15.046-.329.092-.635.127h.006v-.006Z"/><path d="M251.258 228.451c.231-.005.358-.011.658-.017-.329-.017-.641-.04-.958-.058-.196.029-.392.052-.565.081h.865v-.006ZM468.452 1.433h-.214c.196.005.369.023.491.028l-.277-.028ZM87.292 226.559l.018.064.883-.058-.9-.006ZM469.353 63.28c-.034.274-.053.55-.058.825.017-.034.035-.392.058-.825Zm-.053 27.209-.08 3.848c.034-1.668.057-2.88.08-3.849v.001Zm-.109 20.913c.041.266.07.341.098.41v-.04l-.098-.37ZM272.53 2.771c-.248 0-.496.006-.716.012-1.673.046-.536.028.716-.012Zm87.55-.588c-.929.04-1.846.075-2.815.12 1.557.018 2.769.024 2.815-.12Zm-6.883.115c1.557.052 2.861.04 4.073 0-1.281-.017-2.781-.04-4.073 0Zm115.889 199.764-.012 1.01s.029.04.035.121l-.029-1.125h.006v-.006Zm.029 1.125.029 1.12c0-.514 0-.958-.029-1.12Zm.081 3.474-.057-2.354c0 .813-.006 1.823.057 2.354Zm-.006-32.292-.081-.317c.018.173.041.283.081.317Zm-.022-8.411c-.018 2.007-.173 5.036-.121 7.834l.063.26c-.121-1.315.19-6.19.058-8.1v.006Zm.997-35.124-.063 7.05c.087-1.235.202-2.85.219.352.254-8.891-.19 1.834-.156-7.402Zm.122-21.86c.04 3.79.127-.047.173.155-.081-2.405-.098-2.982-.173-.155ZM424.812 1.23l.335-.23c-2.585.034-.023.086-.335.23Zm-26.718 1.183 2.516.139 1.194-.208-3.71.07v-.001ZM382.31.786l1.13-.034-4.309.086 3.179-.052ZM147.565.867l.779.283c1.748-.052 2.111-.37-.779-.283Zm-101.344.289c-1.102-.139-3.952-.231-5.712-.093 2.28.018 4.552.127 5.712.093Zm14.197 227.659-2.036.092 3.837-.075-1.8-.017h-.001ZM17.812 30.314c0-.854.207-1.639.623-2.36a4.546 4.546 0 0 1 1.702-1.702 4.623 4.623 0 0 1 2.36-.623 4.64 4.64 0 0 1 2.359.623 4.55 4.55 0 0 1 1.702 1.702c.415.716.623 1.506.623 2.36v6.871a4.64 4.64 0 0 1-.623 2.36 4.59 4.59 0 0 1-1.702 1.702 4.627 4.627 0 0 1-2.36.623 4.641 4.641 0 0 1-4.061-2.325 4.625 4.625 0 0 1-.623-2.36v-6.871Zm3.12 6.871c0 .294.07.56.203.796.132.243.323.427.56.56.236.139.5.202.795.202.295 0 .554-.07.797-.202a1.45 1.45 0 0 0 .56-.56c.132-.236.2-.502.2-.796v-6.871a1.63 1.63 0 0 0-.201-.796 1.489 1.489 0 0 0-.56-.56 1.632 1.632 0 0 0-.796-.202c-.288 0-.56.07-.796.202a1.448 1.448 0 0 0-.56.56 1.572 1.572 0 0 0-.201.796v6.871h-.001Zm10.236-6.871c0-.854.208-1.639.623-2.36a4.546 4.546 0 0 1 1.702-1.702 4.623 4.623 0 0 1 2.36-.623 4.64 4.64 0 0 1 2.36.623c.72.416 1.286.981 1.7 1.702.417.716.624 1.506.624 2.36v.311h-3.12v-.311c0-.288-.07-.554-.203-.796a1.488 1.488 0 0 0-.56-.56 1.632 1.632 0 0 0-.796-.202c-.288 0-.56.07-.796.202a1.448 1.448 0 0 0-.56.56 1.572 1.572 0 0 0-.201.796v6.871c0 .294.069.56.202.796.132.243.323.427.56.56.236.139.5.202.795.202.295 0 .554-.07.797-.202a1.45 1.45 0 0 0 .56-.56c.132-.236.2-.502.2-.796v-.311h3.122v.311a4.64 4.64 0 0 1-.623 2.36 4.59 4.59 0 0 1-1.702 1.702 4.626 4.626 0 0 1-2.36.623 4.641 4.641 0 0 1-4.061-2.325 4.625 4.625 0 0 1-.623-2.36v-6.871Zm13.356 0c0-.854.208-1.639.623-2.36a4.546 4.546 0 0 1 1.702-1.702 4.623 4.623 0 0 1 2.36-.623 4.64 4.64 0 0 1 2.36.623c.72.416 1.286.981 1.702 1.702.415.716.623 1.506.623 2.36v.311h-3.122v-.311a1.63 1.63 0 0 0-.202-.796 1.489 1.489 0 0 0-.56-.56 1.633 1.633 0 0 0-.795-.202c-.29 0-.56.07-.797.202a1.448 1.448 0 0 0-.56.56 1.572 1.572 0 0 0-.201.796v6.871c0 .294.07.56.202.796.133.243.323.427.56.56.236.139.5.202.796.202.294 0 .553-.07.796-.202a1.45 1.45 0 0 0 .56-.56c.132-.236.2-.502.2-.796v-.311h3.123v.311c0 .854-.208 1.639-.623 2.36a4.59 4.59 0 0 1-1.702 1.702 4.626 4.626 0 0 1-2.36.623 4.641 4.641 0 0 1-4.062-2.325 4.625 4.625 0 0 1-.623-2.36v-6.871Zm15.825-4.374h4.373l3.122 15.613h-3.185l-.623-3.121h-3l-.623 3.12h-3.185l3.12-15.611v-.001Zm3.058 9.37-.877-4.338-.877 4.338h1.754Zm12.463 6.554a4.642 4.642 0 0 1-4.062-2.325 4.625 4.625 0 0 1-.623-2.36v-.311h3.12v.311c0 .272.076.526.22.768.145.242.34.432.577.577.237.144.497.219.768.219.27 0 .525-.075.767-.22.237-.144.433-.34.577-.576.143-.23.22-.497.22-.768 0-.351-.047-.634-.14-.842-.092-.208-.265-.392-.513-.548-.248-.156-.611-.306-1.09-.45l-.283-.092c-1.021-.289-1.835-.664-2.452-1.125-.611-.456-1.061-.998-1.344-1.621-.283-.623-.421-1.35-.421-2.187 0-.837.208-1.639.623-2.36a4.546 4.546 0 0 1 1.702-1.702 4.623 4.623 0 0 1 2.36-.623 4.64 4.64 0 0 1 2.36.623c.72.416 1.286.981 1.7 1.702.416.716.624 1.506.624 2.36v.311h-3.121v-.311c0-.415-.156-.779-.467-1.09a1.494 1.494 0 0 0-1.09-.468c-.416 0-.78.156-1.091.468a1.493 1.493 0 0 0-.468 1.09c0 .352.058.64.174.86.115.219.31.41.594.576.282.168.68.335 1.2.502l.346.093c.877.311 1.598.675 2.17 1.09.57.416 1.009.93 1.309 1.53.3.605.45 1.343.45 2.214 0 .872-.208 1.639-.623 2.36a4.59 4.59 0 0 1-1.702 1.702 4.627 4.627 0 0 1-2.36.623h-.011ZM87.667 25.94h-3.121v15.613h3.12V25.94Zm4.109 4.374c0-.854.207-1.639.623-2.36a4.546 4.546 0 0 1 1.702-1.702 4.623 4.623 0 0 1 2.36-.623 4.64 4.64 0 0 1 2.359.623 4.552 4.552 0 0 1 1.702 1.702c.415.716.623 1.506.623 2.36v6.871c0 .854-.208 1.639-.623 2.36a4.59 4.59 0 0 1-1.702 1.702 4.626 4.626 0 0 1-2.36.623 4.641 4.641 0 0 1-4.061-2.325 4.625 4.625 0 0 1-.623-2.36v-6.871Zm3.12 6.871c0 .294.07.56.203.796.132.243.323.427.56.56.236.139.5.202.796.202.294 0 .553-.07.796-.202a1.45 1.45 0 0 0 .56-.56c.132-.236.2-.502.2-.796v-6.871a1.63 1.63 0 0 0-.201-.796 1.489 1.489 0 0 0-.56-.56 1.632 1.632 0 0 0-.796-.202c-.288 0-.56.07-.796.202a1.448 1.448 0 0 0-.56.56 1.572 1.572 0 0 0-.201.796v6.871h-.001ZM105.23 25.94h3.871l3.935 9.307V25.94h3.121v15.612h-3.842l-3.964-9.399v9.399h-3.121V25.94Zm14.982 3.122h3.121v3.121h-3.121v-3.121Zm0 9.37h3.121v3.12h-3.121v-3.12ZM17.812 59.34h9.369v3.12h-6.242v3.122h6.242v3.121h-6.242v6.243h-3.122V59.334l-.006.006Zm13.356 0h9.37v3.12h-6.243v3.122h6.242v3.121h-6.242v3.122h6.242v3.12h-9.37v-15.61.006-.001Zm16.184 0h4.372l3.122 15.612H51.66l-.623-3.122h-3l-.623 3.122H44.23l3.122-15.612Zm3.057 9.37-.877-4.34-.877 4.34h1.754Zm6.854-9.37h9.37v3.12H63.51v12.492H60.39V62.46h-3.121v-3.12h-.006Zm16.478 0v11.238c0 .295.069.56.202.797.132.242.323.427.56.56.236.138.5.201.795.201.295 0 .554-.07.797-.202a1.45 1.45 0 0 0 .56-.56c.132-.236.2-.501.2-.796V59.34h3.122v11.238a4.64 4.64 0 0 1-.623 2.36 4.589 4.589 0 0 1-1.702 1.702 4.626 4.626 0 0 1-2.36.623 4.642 4.642 0 0 1-4.061-2.325 4.625 4.625 0 0 1-.623-2.36V59.34h3.133Zm10.385 0h4.684a4.64 4.64 0 0 1 2.36.623 4.588 4.588 0 0 1 1.702 1.702c.415.715.623 1.505.623 2.36v1.563a4.64 4.64 0 0 1-.623 2.36 4.59 4.59 0 0 1-1.702 1.702 4.626 4.626 0 0 1-2.36.623h-1.563v4.684h-3.121V59.34Zm4.684 7.8c.289 0 .554-.07.796-.202a1.45 1.45 0 0 0 .56-.56c.133-.236.202-.502.202-.796V64.02c0-.289-.07-.554-.202-.797a1.49 1.49 0 0 0-.56-.56 1.633 1.633 0 0 0-.796-.201h-1.563v4.685h1.563v-.007Zm-.594.398h3.248l2.03 7.402h-3.247l-2.031-7.402Zm12.393-8.198h-3.121v15.612h3.121V59.34Zm4.153 0h3.872l3.934 9.306V59.34h3.121v15.612h-3.842l-3.963-9.399v9.399h-3.122V59.34Zm15.012 4.373c0-.854.208-1.639.623-2.36a4.544 4.544 0 0 1 1.702-1.702 4.62 4.62 0 0 1 2.36-.623 4.64 4.64 0 0 1 2.359.623 4.55 4.55 0 0 1 1.702 1.702c.416.716.623 1.506.623 2.36v.311h-3.121v-.311a1.64 1.64 0 0 0-.202-.796 1.495 1.495 0 0 0-.559-.56 1.636 1.636 0 0 0-.797-.202c-.288 0-.559.07-.796.202a1.44 1.44 0 0 0-.559.56 1.562 1.562 0 0 0-.202.796v6.871c0 .294.069.56.202.796.132.243.323.427.559.56.237.138.502.202.796.202.295 0 .554-.07.797-.202.236-.133.427-.323.559-.56.133-.236.202-.502.202-.796V68.71h-1.563v-3.121h4.684v4.996c0 .854-.207 1.639-.623 2.36a4.595 4.595 0 0 1-1.702 1.702 4.626 4.626 0 0 1-2.359.623 4.642 4.642 0 0 1-4.062-2.325 4.622 4.622 0 0 1-.623-2.36V63.713Zm13.362-1.253h3.121v3.122h-3.121V62.46Zm0 9.37h3.121v3.122h-3.121V71.83ZM20.932 92.733v12.49h6.243v3.122h-9.37V92.733h3.128-.001Zm10.213 4.373c0-.854.208-1.639.623-2.36a4.588 4.588 0 0 1 1.702-1.702 4.623 4.623 0 0 1 2.36-.623 4.64 4.64 0 0 1 2.36.623c.72.416 1.286.981 1.702 1.702a4.64 4.64 0 0 1 .623 2.36v6.871a4.64 4.64 0 0 1-.623 2.36 4.588 4.588 0 0 1-1.702 1.702 4.632 4.632 0 0 1-2.36.623 4.647 4.647 0 0 1-4.685-4.685v-6.871Zm3.122 6.871c0 .294.069.56.202.796.132.243.323.427.56.56.236.139.5.202.795.202.294 0 .554-.069.796-.202a1.45 1.45 0 0 0 .56-.56c.134-.244.203-.518.202-.796v-6.871c0-.288-.07-.554-.202-.796a1.489 1.489 0 0 0-.56-.56 1.632 1.632 0 0 0-.796-.202c-.288 0-.56.07-.796.202a1.41 1.41 0 0 0-.56.56 1.572 1.572 0 0 0-.201.796v6.871Zm10.24-6.871c0-.854.208-1.639.623-2.36a4.59 4.59 0 0 1 1.702-1.702 4.623 4.623 0 0 1 2.36-.623 4.64 4.64 0 0 1 2.36.623c.72.416 1.286.981 1.702 1.702a4.64 4.64 0 0 1 .623 2.36v.312h-3.121v-.312c0-.288-.07-.554-.202-.796a1.489 1.489 0 0 0-.56-.56 1.632 1.632 0 0 0-.796-.202c-.29 0-.56.07-.796.202a1.41 1.41 0 0 0-.56.56 1.571 1.571 0 0 0-.202.796v6.871c0 .294.07.56.202.796.133.243.323.427.56.56.236.139.502.202.796.202.294 0 .554-.069.796-.202a1.45 1.45 0 0 0 .56-.56c.134-.244.203-.518.202-.796v-.311h3.12v.311a4.64 4.64 0 0 1-.622 2.36 4.588 4.588 0 0 1-1.702 1.702 4.632 4.632 0 0 1-2.36.623 4.647 4.647 0 0 1-4.685-4.685v-6.871Zm15.82-4.373H64.7l3.12 15.612h-3.183l-.624-3.122h-3l-.623 3.122h-3.184l3.12-15.612Zm3.057 9.369-.876-4.338-.877 4.338h1.754-.001Zm6.854-9.369h9.37v3.121h-3.121v12.491h-3.121V95.854h-3.122v-3.121h-.006Zm16.478 0h-3.121v15.612h3.12V92.733Zm4.107 4.373c0-.854.208-1.639.624-2.36a4.589 4.589 0 0 1 1.7-1.702 4.623 4.623 0 0 1 2.36-.623 4.64 4.64 0 0 1 2.36.623 4.558 4.558 0 0 1 1.703 1.702c.414.717.629 1.532.623 2.36v6.871a4.647 4.647 0 0 1-.623 2.36 4.588 4.588 0 0 1-1.702 1.702 4.632 4.632 0 0 1-2.36.623 4.642 4.642 0 0 1-4.061-2.325 4.64 4.64 0 0 1-.624-2.36v-6.871Zm3.122 6.871c0 .294.069.56.2.796.134.243.325.427.56.56.238.139.503.202.797.202.295 0 .554-.069.796-.202.237-.133.427-.323.56-.56.134-.244.203-.518.202-.796v-6.871c0-.288-.07-.554-.202-.796a1.488 1.488 0 0 0-.56-.56 1.632 1.632 0 0 0-.796-.202c-.288 0-.56.07-.796.202-.237.13-.43.324-.56.56a1.572 1.572 0 0 0-.201.796v6.871Zm10.333-11.244h3.871l3.935 9.306v-9.306h3.121v15.612h-3.842l-3.964-9.399v9.399h-3.121V92.733Zm14.983 3.127h3.121v3.121h-3.121V95.86Zm0 9.369h3.121v3.121h-3.121v-3.121Zm-101.45 20.903h9.37v3.121H24.06v12.491h-3.122v-12.491h-3.12v-3.121h-.006Zm16.478 0h-3.121v15.612h3.12v-15.612Zm4.155 0h4.684l3.122 10.021 3.12-10.021h4.686v15.612h-3.122v-10.178l-3.12 10.178h-3.122l-3.121-10.178v10.178H38.45v-15.612h-.006Zm19.77 0h9.37v3.121h-6.242v3.121h6.243v3.121h-6.243v3.122h6.243v3.121h-9.37v-15.612.006Zm13.363 3.121h3.12v3.121h-3.12v-3.121Zm0 9.369h3.12v3.122h-3.12v-3.122ZM180.26 37.63l-1.137 4.032h-2.694l4.771-15.825h3.167l4.772 15.825h-2.695l-1.159-4.032h-5.025Zm.623-2.21h3.767c-.894-3.006-1.471-5.371-1.829-7.31h-.086c-.358 1.939-.958 4.304-1.852 7.31Zm34.402-.242h-2.429v6.484h-2.741V25.837h5.395c3.479 0 5.463 1.713 5.463 4.725 0 2.008-1.09 3.502-3.011 4.148l3.519 6.952h-3.012l-3.184-6.484Zm-2.429-1.962h2.406c1.852 0 2.832-.935 2.832-2.63 0-1.697-.98-2.632-2.832-2.632h-2.406v5.262Zm22.882-5.129h-6.797v4.367h6.422v2.21h-6.422v4.748h6.952v2.25h-9.692V25.837h9.537v2.25Zm7.713-2.25v10.656c0 1.962.958 3.254 2.833 3.254 1.875 0 2.717-1.292 2.717-3.254V25.837h2.764v10.679c0 3.3-1.806 5.527-5.464 5.527-3.658 0-5.619-2.227-5.619-5.527v-10.68h2.769v.001Zm21.653 11.925a17.205 17.205 0 0 1-.133-2.14v-9.785h2.562v15.825h-2.943l-4.413-10.165c-.358-.848-.646-1.875-.716-2.072h-.109c.086.514.132 1.224.132 1.806v10.431h-2.561V25.837h3.208l4.125 9.698c.38.935.646 1.783.755 2.227h.093Zm13.794-9.785v11.545h3.704v2.14h-10.12v-2.14h3.675V27.977h-3.675v-2.14h10.12v2.14h-3.704Zm7.904 6.577V32.95c0-4.661 1.938-7.488 5.908-7.488 3.969 0 5.907 2.833 5.907 7.488v1.604c0 4.656-1.938 7.49-5.907 7.49-3.97 0-5.908-2.834-5.908-7.49Zm9.006.07v-1.737c0-3.565-.958-5.17-3.098-5.17-2.141 0-3.099 1.605-3.099 5.17v1.737c0 3.565.958 5.169 3.099 5.169 2.14 0 3.098-1.604 3.098-5.17v.001Zm15.693 3.138h.092c-.092-.623-.132-1.494-.132-2.14v-9.785h2.561v15.825h-2.942l-4.414-10.165c-.357-.848-.646-1.875-.715-2.072h-.11c.087.514.133 1.224.133 1.806v10.431h-2.562V25.837h3.208l4.125 9.698c.381.935.646 1.783.756 2.227ZM188.176 61.509h-7.154v4.39h6.617v2.297h-6.617v6.865h-2.746V59.236h9.9v2.273Zm10.003 7.067h-2.429v6.485h-2.74V59.236h5.394c3.479 0 5.464 1.713 5.464 4.725 0 2.008-1.09 3.502-3.012 4.148l3.52 6.952h-3.012l-3.185-6.485Zm-2.429-1.961h2.406c1.852 0 2.833-.935 2.833-2.631 0-1.696-.981-2.63-2.833-2.63h-2.406v5.261Zm19.6-5.239v11.545h3.704v2.14h-10.12v-2.14h3.675V61.376h-3.675v-2.14h10.12v2.14h-3.704Zm18.462.11h-6.797v4.367h6.422v2.21h-6.422v4.748h6.953v2.25h-9.693V59.236h9.537v2.25Zm13.373 9.675a17.205 17.205 0 0 1-.133-2.14v-9.785h2.562V75.06h-2.943l-4.413-10.165c-.358-.849-.646-1.876-.716-2.072h-.109c.086.514.132 1.224.132 1.806V75.06h-2.561V59.236h3.208l4.125 9.698c.38.935.646 1.783.755 2.227h.093Zm7.701-11.925h5.06c4.166 0 6.531 3.167 6.531 7.8s-2.561 8.025-6.577 8.025h-5.014V59.236Zm4.835 13.639c2.562 0 3.946-2.475 3.946-5.839 0-3.364-1.292-5.62-3.9-5.62h-2.14v11.459h2.094Zm10.57-2.025 2.452-.849c.468 1.783 1.541 3.168 3.699 3.168 1.269 0 2.786-.468 2.786-2.14 0-1.674-1.067-2.187-2.296-2.522l-2.117-.577c-2.343-.623-3.97-2.008-3.97-4.413 0-2.631 2.164-4.662 5.348-4.662 2.874 0 5.106 1.183 5.706 3.923l-2.319 1.206c-.49-2.187-1.915-2.896-3.41-2.896-1.961 0-2.561 1.09-2.561 2.117 0 1.183.894 1.939 2.186 2.32l2.095.576c2.204.6 4.125 1.627 4.125 4.57 0 2.452-1.875 4.771-5.66 4.771-3.364 0-5.371-1.875-6.064-4.592Zm32.62-2.897V66.35c0-4.661 1.938-7.488 5.908-7.488 3.969 0 5.907 2.833 5.907 7.488v1.604c0 4.656-1.938 7.489-5.907 7.489-3.97 0-5.908-2.833-5.908-7.489v-.001Zm9.006.07v-1.737c0-3.566-.958-5.17-3.098-5.17-2.141 0-3.098 1.605-3.098 5.17v1.737c0 3.565.957 5.169 3.098 5.169 2.14 0 3.098-1.604 3.098-5.17v.001Zm10.696-8.787v13.506h7.178v2.32h-9.918V59.235h2.74v.001Zm11.955 0h5.06c4.165 0 6.531 3.167 6.531 7.8s-2.562 8.025-6.577 8.025h-5.014V59.236Zm4.835 13.639c2.561 0 3.946-2.475 3.946-5.839 0-3.364-1.292-5.62-3.9-5.62h-2.141v11.459h2.095Zm34.685 0v2.163c-.335.092-.6.156-1.004.156-.958 0-1.875-.38-2.631-1.316v-.023c-1.114 1.004-2.521 1.581-4.321 1.581-3.208 0-4.858-1.892-4.858-4.437 0-2.296 1.361-3.72 3.208-4.678-.779-.935-1.76-2.187-1.76-3.877 0-2.32 1.875-3.589 4.015-3.589 2.141 0 3.877 1.183 3.877 3.387 0 1.984-1.448 3.254-3.167 4.304l3.052 3.744c.404-1.067.646-2.406.733-4.016l2.071.404c-.133 1.985-.6 3.837-1.402 5.308l.023.046c.514.67 1.05.871 1.673.871.156 0 .335 0 .491-.023v-.005Zm-4.835-.514-3.658-4.639c-1.223.872-1.783 1.674-1.783 3.012 0 1.829 1.206 2.677 2.81 2.677 1.067 0 1.939-.358 2.631-1.05Zm-4.235-10.033c0 .958.514 1.806 1.362 2.896l.023-.023c1.269-.888 1.938-1.696 1.938-2.855 0-1.09-.646-1.674-1.627-1.674-.98 0-1.696.56-1.696 1.65v.006Zm42.809 8.833h.092c-.092-.623-.132-1.494-.132-2.14v-9.785h2.561V75.06h-2.942l-4.414-10.165c-.358-.849-.646-1.876-.715-2.072h-.11c.087.514.133 1.224.133 1.806V75.06h-2.562V59.236h3.208l4.125 9.698c.381.935.646 1.783.756 2.227Zm17.626-9.675h-6.796v4.367h6.421v2.21h-6.421v4.748h6.952v2.25h-9.693V59.236h9.537v2.25Zm7.251-2.25.445 9.808c.069 1.494.069 2.452.069 3.144h.225c.023-.444.092-1.206.404-2.787l1.246-6.219h2.227l1.246 6.22c.311 1.58.381 2.342.404 2.786h.225c0-.692 0-1.65.069-3.144l.444-9.808h2.522l-1.16 15.825h-3.168l-1.182-6.196a25.17 25.17 0 0 1-.404-3.19h-.225a28.73 28.73 0 0 1-.381 3.19l-1.206 6.196h-3.144l-1.183-15.825h2.527ZM188.776 92.629v2.32h-4.639v13.505h-2.763V94.948h-4.633v-2.32h12.035v.001Zm15.121 15.825h-2.74v-6.975h-5.129v6.975h-2.741V92.629h2.741v6.664h5.129v-6.664h2.74v15.825Zm8.164-4.032-1.137 4.032h-2.694l4.771-15.825h3.168l4.771 15.825h-2.694l-1.16-4.032h-5.025Zm.623-2.21h3.767c-.894-3.006-1.471-5.371-1.828-7.31h-.087c-.358 1.939-.958 4.304-1.852 7.31Zm22.178-9.583v2.32h-4.639v13.505h-2.763V94.948h-4.633v-2.32h12.035v.001Zm24.721 0v13.506h7.177v2.319h-9.917V92.629h2.74Zm11.262 8.717v-1.603c0-4.662 1.938-7.49 5.907-7.49 3.97 0 5.908 2.834 5.908 7.49v1.603c0 4.656-1.938 7.489-5.908 7.489-3.969 0-5.907-2.833-5.907-7.489Zm9.006.07v-1.737c0-3.565-.958-5.17-3.099-5.17-2.14 0-3.098 1.605-3.098 5.17v1.737c0 3.565.958 5.169 3.098 5.169 2.141 0 3.099-1.604 3.099-5.169Zm7.102-.052v-1.65c0-4.616 1.984-7.466 5.954-7.466 3.386 0 5.463 1.829 5.752 5.73l-2.741.42c-.132-2.498-1.182-3.877-3.029-3.877-2.14 0-3.121 1.673-3.121 5.147v1.58c0 3.456 1.027 5.308 3.121 5.308 1.875 0 2.897-1.361 3.029-3.9l2.718.514c-.225 3.34-2.21 5.659-5.862 5.659-3.9 0-5.816-2.856-5.816-7.465h-.005Zm18.953 3.058-1.137 4.032h-2.694l4.771-15.825h3.167l4.772 15.825h-2.695l-1.159-4.032h-5.025Zm.623-2.21h3.767c-.888-3.006-1.471-5.371-1.829-7.31h-.086c-.358 1.939-.958 4.304-1.852 7.31Zm15.681-9.583v13.506h7.177v2.319h-9.917V92.629h2.74Zm28.403 11.614 2.452-.848c.467 1.782 1.54 3.167 3.698 3.167 1.269 0 2.787-.467 2.787-2.14 0-1.674-1.068-2.187-2.297-2.522l-2.117-.577c-2.342-.623-3.969-2.007-3.969-4.413 0-2.631 2.163-4.662 5.348-4.662 2.873 0 5.106 1.183 5.706 3.923l-2.319 1.206c-.491-2.186-1.916-2.896-3.41-2.896-1.962 0-2.562 1.09-2.562 2.117 0 1.183.889 1.939 2.187 2.32l2.094.576c2.204.6 4.125 1.627 4.125 4.57 0 2.452-1.875 4.771-5.659 4.771-3.364 0-5.372-1.875-6.064-4.592Zm16.737 4.211V92.629h5.463c4.258 0 5.395 2.63 5.395 4.771 0 2.14-1.27 4.835-5.637 4.835h-2.475v6.219h-2.746Zm4.927-8.267c2.475 0 3.052-1.471 3.052-2.718 0-1.246-.56-2.717-2.896-2.717h-2.343v5.441h2.187v-.006Zm10.027 1.159v-1.603c0-4.662 1.938-7.49 5.908-7.49 3.969 0 5.908 2.834 5.908 7.49v1.603c0 4.656-1.939 7.489-5.908 7.489-3.97 0-5.908-2.833-5.908-7.489Zm9.006.07v-1.737c0-3.565-.958-5.17-3.098-5.17-2.141 0-3.098 1.605-3.098 5.17v1.737c0 3.565.957 5.169 3.098 5.169 2.14 0 3.098-1.604 3.098-5.169Zm18.571-8.787v2.32h-4.638v13.505h-2.764V94.948h-4.633v-2.32h12.035v.001ZM179.88 141.611c0-4.523 2.03-8.937 5.44-12.86h-7.823v-2.383h10.696v2.118c-3.502 3.79-5.308 8.204-5.308 12.906v.467h-3.011v-.242l.006-.006Zm17.625-7.558h-3.456v-3.34h3.456v3.34Zm0 7.8h-3.456v-3.34h3.456v3.34Zm6.352-4.546 2.741-.289c.069 1.783 1.067 2.989 2.942 2.989 1.737 0 2.717-.981 2.717-2.631 0-1.471-1.004-2.475-2.942-2.475h-.871v-2.008h.825c1.713 0 2.538-1.05 2.538-2.429 0-1.378-.802-2.273-2.365-2.273-1.737 0-2.718 1.137-2.718 3.122l-2.653-.422c0-2.988 2.117-4.857 5.504-4.857 3.144 0 4.99 1.65 4.99 4.211 0 1.604-1.09 3.012-2.74 3.433 2.007.381 3.207 1.76 3.207 3.877 0 2.764-2.163 4.639-5.527 4.639-3.363 0-5.596-1.985-5.659-4.881l.011-.006Zm27.15.335c0 2.74-2.25 4.546-5.683 4.546s-5.729-1.714-5.729-4.368c0-2.007.958-3.323 2.966-3.923-1.604-.732-2.452-1.852-2.452-3.721 0-2.475 2.071-4.148 5.169-4.148 3.098 0 5.083 1.494 5.083 3.946 0 1.673-.825 2.856-2.498 3.41 2.071.779 3.144 2.007 3.144 4.258Zm-2.717-.047c0-1.338-.848-2.117-2.475-2.63l-1.316-.404c-1.557.646-2.186 1.494-2.186 2.873 0 1.604 1.205 2.677 3.052 2.677 1.846 0 2.919-.958 2.919-2.521l.006.005Zm-5.481-7.425c0 1.223.756 1.916 2.319 2.406l.802.225c1.339-.6 1.829-1.338 1.829-2.538 0-1.449-.935-2.297-2.539-2.297-1.494 0-2.405.825-2.405 2.204h-.006Zm30.341 11.683v-15.825h5.464c4.257 0 5.394 2.631 5.394 4.771 0 2.141-1.269 4.835-5.637 4.835h-2.475v6.219h-2.746Zm4.927-8.267c2.475 0 3.052-1.472 3.052-2.718s-.56-2.717-2.896-2.717h-2.343v5.44h2.187v-.005Zm13.039 4.927h-3.456v3.34h3.456v-3.34Zm13.362-.514h-2.141l-1.136-5.619c-.202-.912-.468-2.562-.6-3.566h-.156c.069 1.293.11 3.231.11 4.483v8.562h-2.452v-15.825h3.455l1.495 7.154c.109.669.242 1.54.288 2.007h.133c.046-.467.179-1.338.288-2.007l1.495-7.154h3.455v15.825h-2.452v-8.562c0-1.246.047-3.184.11-4.483h-.156c-.109 1.004-.404 2.654-.6 3.566l-1.136 5.619Zm14.671.514h-3.456v3.34h3.456v-3.34ZM20.582 175.212h7.078v28.322h14.164v7.079H20.582v-35.407.006Zm36.71 0h-7.08v35.406h7.08v-35.406Zm14.983 0 4.817 26.764 4.818-26.764h7.223l-6.375 35.406H71.427l-6.375-35.406h7.223Zm24.607 0h21.242v7.079H103.96v7.079h14.164v7.079H103.96v7.079h14.164v7.079H96.881V175.2v.012Zm63.116 0 7.079 35.406h-7.223l-1.414-7.079h-6.796l-1.419 7.079h-7.224l7.079-35.406h9.918Zm-2.971 21.243-1.985-9.843-1.985 9.843h3.97Zm34.94-21.243h7.079v28.322h14.163v7.079h-21.242v-35.407.006Zm36.71 0h-7.079v35.406h7.079v-35.406Zm8.781 0h21.243v7.079h-14.164v7.079h14.164v7.079h-14.164v14.164h-7.079v-35.407.006Zm29.637 0h21.242v7.079h-14.163v7.079h14.163v7.079h-14.163v7.079h14.163v7.079h-21.242V175.2v.012Zm-84.683 86.333c3.963.755-.895 8.094-.629 10.644-2.423 19.293 11.423 3.41 14.418-4.985 3.496-7.961 2.48-.848.305 2.775-16.483 31.917-24.352-2.746-14.1-8.434h.006Zm4.35-11.412c-3.144 7.396-4.72-3.254-.791-4.022 2.637-.559 1.645 2.049.791 4.022Z"/><path d="M184.026 283.537c-.225 0-.444-.017-.646-.046-2.625-.392-4.668-3.242-5.458-7.621-.963-5.319.248-12.208 4.385-14.504l.069-.041.075.018c.669.127 1.154.444 1.437.94.778 1.362-.081 3.773-.918 6.098-.542 1.523-1.061 2.966-.969 3.796-.675 5.441-.127 8.51 1.587 8.92 3.404.813 10.419-8.366 12.41-13.95 1.632-3.722 2.094-3.751 2.29-3.768a.34.34 0 0 1 .317.173c.427.704-.681 4.5-1.915 6.554-5.631 10.91-9.912 13.443-12.67 13.443l.006-.012Zm-1.575-21.762c-3.906 2.239-5.031 8.874-4.102 14.014.756 4.189 2.66 6.906 5.094 7.275 3.635.548 8.204-4.136 12.878-13.177 1.321-2.198 2.077-5.412 1.95-6.041-.173.15-.693.779-1.864 3.451-2.083 5.844-9.248 15.086-12.912 14.215-1.99-.473-2.636-3.617-1.921-9.34-.098-.883.433-2.366.992-3.941.762-2.134 1.627-4.552.947-5.74-.208-.37-.56-.6-1.068-.716h.006Zm2.279-8.821c-.058 0-.11 0-.167-.017-.848-.173-1.143-1.581-1.137-2.729.012-1.904.79-3.97 2.504-4.304.813-.173 1.385-.064 1.696.317.641.785-.006 2.475-.669 3.998-.773 1.818-1.523 2.735-2.233 2.735h.006Zm1.892-6.704a2.798 2.798 0 0 0-.605.075c-1.483.288-2.152 2.158-2.158 3.883-.006 1.217.334 2.209.79 2.302.185.034.877-.023 1.91-2.464.409-.946 1.263-2.908.733-3.554-.133-.161-.358-.242-.675-.242h.005Z"/><path d="M201.937 263.402c-.889 4.004-1.46 8.562-1.091 12.352 2.083-3.282 7.062-10.609 8.579-12.369 3.07-4.483 5.729 2.671 8.452 4.217 4.385 4.449 11.447-2.054 16.085-3.155-2.105 3.121-9.017 6.565-12.583 7.027-4.552-.075-7.552-4.616-10.298-7.316-2.169 1.956-4.113 5.55-5.971 8.291-1.719 2.261-2.435 5.55-4.841 6.381-5.152.801-2.365-18.082-1.373-21.907.421-.865.56-1.165 1.483-1.257 4.067-.537 2.106 3.484 1.552 7.742l.006-.006Z"/><path d="M199.959 279.066c-.571 0-1.05-.225-1.448-.669-3.064-3.387-.566-18.67.179-21.531l.023-.058c.421-.86.611-1.252 1.65-1.362 1.073-.144 1.817.023 2.261.496.819.883.45 2.672.023 4.749-.184.882-.369 1.8-.496 2.74v.017c-.963 4.316-1.361 8.418-1.142 11.649 2.313-3.6 6.825-10.195 8.256-11.85.675-.993 1.39-1.501 2.169-1.529 1.425-.064 2.746 1.557 4.01 3.121.836 1.033 1.708 2.106 2.538 2.579l.046.034c2.949 2.989 7.276.785 11.095-1.165 1.725-.877 3.352-1.708 4.783-2.048l.542-.127-.311.461c-2.083 3.093-8.943 6.629-12.733 7.12-3.762-.064-6.428-2.989-8.776-5.573-.536-.589-1.05-1.154-1.552-1.656-1.523 1.431-2.93 3.658-4.298 5.815-.513.808-.998 1.575-1.488 2.297-.583.767-1.05 1.655-1.506 2.515-.917 1.737-1.783 3.375-3.444 3.952a2.307 2.307 0 0 1-.381.035v-.012Zm1.108-23.233c-.197 0-.416.017-.652.046-.802.081-.9.283-1.31 1.119-.883 3.393-3.069 18.018-.271 21.11.386.427.848.595 1.407.508 1.466-.508 2.291-2.077 3.168-3.733.461-.877.94-1.782 1.535-2.567.478-.71.963-1.471 1.471-2.279 1.425-2.25 2.902-4.581 4.523-6.046l.15-.139.144.145c.56.548 1.119 1.165 1.714 1.817 2.296 2.521 4.892 5.377 8.434 5.435 3.399-.439 9.653-3.595 12.018-6.427-1.235.392-2.619 1.101-4.079 1.846-3.946 2.007-8.412 4.286-11.579 1.102-.894-.52-1.737-1.564-2.631-2.666-1.2-1.482-2.435-2.994-3.658-2.959-.634.023-1.234.473-1.846 1.361-1.459 1.702-6.41 8.943-8.579 12.364l-.335.531-.063-.629c-.329-3.358.058-7.766 1.09-12.41.132-.925.298-1.845.497-2.758.403-1.956.75-3.652.086-4.367-.254-.277-.663-.41-1.246-.41l.012.006Zm165.275 27.935c-15.001 14.464-39.468 21.676-60.59 23.055-66.111 2.659-50.638-57.446-20.747-92.87 13.126-15.52 30.693-29.822 51.082-31.801 8.487-.559 16.178 1.5 16.824 11.164.161 7.131-4.264 17.25-4.95 24.174.184 1.153-.093 1.869-1.252 3.132-6.676 5.527-3.145-3.986-.975-8.088 14.596-29.326-3.658-35.574-28.351-23.297-13.725 6.687-25.564 16.685-34.478 29.435-33.808 48.307-29.002 98.166 41.309 83.437 14.475-3.312 29.879-9.97 41.326-19.033 1.938-.969 2.21-.739.813.686l-.011.006Z"/><path d="M301.531 307.128c-20.014 0-33.14-6.109-39.053-18.185-4.593-9.386-4.466-22.068.369-36.687 4.344-13.131 12.15-26.782 21.987-38.441 20.487-24.226 39.168-30.705 51.226-31.876 10.772-.716 16.506 3.109 17.06 11.365.093 4.097-1.298 9.128-2.648 13.997-1.027 3.715-2.002 7.223-2.296 10.189.19 1.217-.121 1.99-1.31 3.282-1.904 1.581-3.138 2.077-3.796 1.547-1.592-1.299 1.54-8.124 2.469-9.883 6.07-12.197 6.849-21.076 2.245-25.68-5.1-5.106-16.72-4.079-30.313 2.677a90.442 90.442 0 0 0-34.397 29.366c-19.829 28.334-25.662 55.761-15.225 71.581 6.167 9.346 20.943 18.929 56.309 11.521 15.422-3.525 30.451-10.448 41.234-18.987 1.436-.727 1.811-.727 1.979-.496.161.219.069.537-.877 1.506-13.339 12.866-36.042 21.508-60.729 23.124-1.442.057-2.856.086-4.234.086v-.006Zm37.068-124.843c-.796 0-1.633.029-2.498.086-9.381.912-18.86 4.541-28.161 10.789-7.777 5.221-15.438 12.266-22.771 20.937-18.503 21.93-32.107 54.619-22.299 74.656 6.237 12.744 20.66 18.745 42.878 17.856 24.578-1.61 47.176-10.206 60.446-22.997.484-.496.68-.761.761-.894-.167.035-.542.162-1.321.554-10.794 8.556-25.887 15.508-41.372 19.05-35.609 7.46-50.522-2.25-56.759-11.706-10.541-15.969-4.702-43.587 15.231-72.071 8.793-12.571 20.747-22.771 34.564-29.504 13.974-6.946 25.489-7.916 30.809-2.596 3.311 3.311 5.619 10.54-2.17 26.181-1.765 3.346-3.6 8.521-2.584 9.352.265.214 1.027.3 3.225-1.523 1.084-1.183 1.35-1.84 1.177-2.931v-.057c.294-3.006 1.275-6.543 2.313-10.287 1.339-4.835 2.723-9.837 2.631-13.864-.496-7.408-5.112-11.037-14.089-11.037l-.011.006Z"/><path d="M343.217 243.613c3.017-.559.882 5.458.311 7.391 2.741-.017 6.52.242 9.231-.012 2.775 0 6.381-1.54 8.833-1.188-1.061 2.752-8.573 2.89-11.625 3.992l.525 2.683c.923 5.025-6.018 15.283-11.302 9.721-2.083-2.434-1.143-8.954-1.945-11.567-.329-1.91-3.9-1.241-3.075-3.3.514-2.66 4.904.352 4.91-2.833l.012.15c.207-1.708 2.434-4.875 4.119-5.037h.006Zm3.617 10.749c-5.492-3.739-6.917 9.986-3.45 11.262 4.275-.427 8.256-8.747 3.45-11.262Z"/><path d="M342.538 268.029c-1.091 0-2.302-.427-3.497-1.679-1.361-1.592-1.482-4.771-1.586-7.569-.064-1.61-.121-3.133-.41-4.085-.138-.79-.911-1.09-1.656-1.384-.634-.248-1.24-.485-1.465-.998-.133-.3-.115-.647.052-1.062.271-1.414 1.558-1.385 2.7-1.356.756.017 1.477.035 1.863-.346.22-.219.329-.56.329-1.044h.035c.3-1.771 2.487-4.916 4.287-5.1.605-.11 1.067.017 1.378.369.975 1.096.179 4.033-.646 6.704-.034.11-.069.219-.098.317.854 0 1.783.023 2.77.046 2.146.052 4.373.11 6.155-.057 1.258 0 2.689-.318 4.074-.623 1.684-.375 3.427-.762 4.806-.56l.271.04-.098.254c-.768 1.985-4.541 2.66-7.864 3.254-1.419.254-2.764.491-3.71.808l.491 2.498c.657 3.56-2.366 9.208-5.874 10.996-.646.329-1.436.595-2.302.595l-.005-.018Zm-6.272-17.712c-1.05 0-1.702.145-1.875 1.05-.132.341-.15.577-.069.768.156.352.675.554 1.223.767.819.317 1.748.681 1.921 1.685.3.975.358 2.527.422 4.165.103 2.735.219 5.827 1.476 7.298 1.945 2.049 3.947 1.668 5.279.987 3.306-1.685 6.26-7.194 5.643-10.529l-.56-2.862.173-.063c.993-.358 2.429-.618 3.958-.889 3.052-.542 6.491-1.154 7.414-2.723-1.246-.098-2.758.237-4.356.589-1.408.311-2.867.634-4.148.634-1.789.168-4.022.116-6.185.058-1.09-.029-2.123-.058-3.046-.046h-.289l.081-.277c.052-.173.115-.375.185-.6.53-1.714 1.632-5.279.738-6.289-.213-.236-.536-.311-.986-.23h-.018c-1.592.155-3.738 3.276-3.929 4.846l-.248 2.077-.092-1.045c-.04.052-.087.104-.133.15-.519.508-1.361.485-2.175.468h-.398l-.006.011Zm7.091 15.526-.046-.018c-1.062-.386-1.777-1.846-1.973-3.992-.277-3.046.588-6.871 2.504-7.996.634-.375 1.69-.618 3.103.34 1.841.969 2.631 2.896 2.164 5.291-.554 2.855-2.983 6.098-5.712 6.369h-.052l.012.006Zm1.69-11.902a1.955 1.955 0 0 0-.986.271c-1.748 1.027-2.55 4.736-2.296 7.586.173 1.91.784 3.254 1.644 3.606 2.515-.288 4.754-3.329 5.279-6.017.248-1.293.329-3.641-1.956-4.835l-.023-.011c-.594-.404-1.148-.606-1.667-.606l.005.006Z"/><path d="M364.976 249.827c-.888 4.004-1.46 8.562-1.09 12.352 2.082-3.283 7.061-10.61 8.579-12.369 3.069-4.483 5.729 2.671 8.452 4.217 4.385 4.448 11.446-2.054 16.085-3.156-2.106 3.121-9.018 6.566-12.583 7.027-4.552-.075-7.552-4.615-10.298-7.315-2.17 1.956-4.114 5.55-5.972 8.29-1.719 2.262-2.434 5.55-4.84 6.381-5.152.802-2.366-18.081-1.373-21.906.421-.865.559-1.165 1.482-1.258 4.068-.536 2.106 3.485 1.552 7.743l.006-.006Z"/><path d="M362.998 265.485c-.571 0-1.05-.225-1.448-.669-3.063-3.387-.565-18.67.179-21.532l.023-.057c.421-.86.612-1.252 1.65-1.362 1.079-.144 1.818.023 2.262.496.819.883.45 2.672.023 4.749a37.984 37.984 0 0 0-.496 2.74v.017c-.964 4.316-1.362 8.418-1.143 11.649 2.314-3.6 6.826-10.195 8.256-11.851.675-.992 1.391-1.5 2.17-1.528h.075c1.407 0 2.694 1.586 3.934 3.121.837 1.032 1.708 2.106 2.539 2.579l.046.034c2.942 2.989 7.275.785 11.094-1.165 1.726-.877 3.353-1.708 4.783-2.048l.543-.127-.312.461c-2.083 3.093-8.942 6.629-12.733 7.12-3.756-.064-6.427-2.989-8.775-5.573-.537-.589-1.05-1.154-1.552-1.656-1.523 1.431-2.931 3.658-4.298 5.815-.514.808-.998 1.575-1.489 2.296-.582.768-1.05 1.656-1.506 2.516-.917 1.736-1.777 3.375-3.444 3.946a2.222 2.222 0 0 1-.381.035v-.006Zm1.108-23.233a5.466 5.466 0 0 0-.652.046c-.802.081-.9.283-1.31 1.119-.882 3.393-3.069 18.024-.271 21.11.387.427.848.595 1.408.508 1.465-.508 2.29-2.077 3.167-3.733.462-.877.941-1.783 1.535-2.567.479-.71.964-1.471 1.471-2.279 1.425-2.25 2.902-4.581 4.523-6.046l.15-.139.145.144c.559.548 1.119 1.166 1.713 1.818 2.291 2.521 4.893 5.377 8.435 5.435 3.398-.439 9.652-3.595 12.018-6.428-1.235.393-2.62 1.102-4.079 1.847-3.941 2.007-8.412 4.286-11.579 1.102-.895-.52-1.737-1.564-2.631-2.666-1.183-1.46-2.4-2.965-3.6-2.965h-.058c-.635.029-1.235.473-1.846 1.361-1.506 1.754-6.41 8.937-8.579 12.364l-.335.531-.063-.629c-.329-3.358.057-7.766 1.09-12.41.127-.952.312-1.869.496-2.758.404-1.956.75-3.652.087-4.367-.254-.277-.664-.41-1.246-.41l.011.012Z"/><path d="M415.727 247.721c.398-.035.473.542.219 1.719-1.107 4.852-4.327 13.841-6.513 19.01-1.766 5.579-8.401 16.224-12.081 6.226-1.847-6.699-1.495-14.274-.998-21.336.732-7.344 1.915-14.065 3.455-22.31.058-.507.3-.605.733-.288.427.317.242.508-.56.577-3.121.733-8.798 2.273-11.648 3.692-.242.433-.917-.652-1.154-1.113.329-1.979 10.852-3.762 13.391-4.598.225-2.891 1.258-8.481 3.998-8.355 4.344-.063.375 5.631-.577 7.616 6.952-1.419 14.349-3.577 21.358-3.444 1.593 1.448-3.923 4.108-3.294 2.244-.923-2.221-13.471 1.131-15.012 1.477-2.706 1.113-3.485.669-4.16 2.769-.934 3.543-2.071 7.097-2.7 11.199-1.107 4.234-5.29 44.378 4.679 30.716 4.956-7.172 7.281-18.589 10.87-25.807l-.006.006Z"/><path d="M401.217 279.008c-1.656 0-3.017-1.43-4.062-4.257-1.852-6.716-1.511-14.268-1.009-21.422.733-7.35 1.938-14.187 3.334-21.664-3.04.738-8.29 2.192-10.99 3.519a.372.372 0 0 1-.3.145c-.491-.012-1.079-1.108-1.194-1.333l-.035-.064.011-.069c.243-1.483 4.778-2.654 10.235-3.935 1.327-.311 2.487-.582 3.168-.79.121-1.367.888-8.412 4.108-8.412h.103c.981 0 1.633.26 1.962.814.819 1.361-.658 4.015-1.731 5.948-.156.283-.3.542-.421.767 1.419-.294 2.885-.623 4.298-.94 5.51-1.241 11.216-2.516 16.662-2.417h.081l.058.057c.45.41.484.952.092 1.523-.716 1.039-2.769 2.014-3.491 1.656-.127-.063-.398-.259-.271-.756-.461-.79-3.306-1.13-13.956 1.483-.358.087-.623.15-.779.19-.698.295-1.298.485-1.782.635-1.316.421-1.76.56-2.216 1.985-.213.802-.438 1.621-.663 2.44-.762 2.741-1.547 5.579-2.025 8.724-.445 1.69-1.425 9.473-1.725 17.181-.37 9.461.421 15.144 2.215 15.998.929.439 2.204-.444 3.796-2.625 2.96-4.281 4.968-10.062 6.9-15.646 1.293-3.722 2.51-7.235 3.947-10.126l.052-.109.121-.012a.5.5 0 0 1 .421.162c.236.265.242.83.029 1.823-1.079 4.725-4.247 13.662-6.525 19.045-1.137 3.6-4.772 10.39-8.36 10.477h-.069l.011.005Zm-1.275-47.453c-1.408 7.552-2.625 14.424-3.364 21.809-.501 7.113-.842 14.619.987 21.254.981 2.654 2.25 3.987 3.704 3.958 3.069-.069 6.658-6.07 7.962-10.195 2.284-5.388 5.434-14.29 6.508-18.992.202-.941.144-1.281.098-1.397-1.385 2.827-2.573 6.26-3.837 9.889-1.95 5.614-3.964 11.423-6.958 15.756-1.76 2.412-3.179 3.312-4.333 2.764-4.707-2.233-1.598-30.33-.727-33.659.479-3.15 1.27-6 2.031-8.752.225-.819.456-1.633.67-2.446.53-1.65 1.188-1.858 2.503-2.279.473-.15 1.062-.34 1.783-.635.191-.046.456-.109.808-.196 9.271-2.273 13.875-2.642 14.487-1.159l.029.075-.024.075c-.086.259.001.3.024.317.444.225 2.29-.56 2.942-1.512.317-.467.19-.738.035-.906-5.389-.086-11.02 1.177-16.478 2.406-1.563.352-3.184.716-4.748 1.033l-.427.087.191-.393c.15-.317.375-.721.634-1.188.964-1.737 2.423-4.368 1.737-5.516-.243-.409-.773-.611-1.598-.6-2.475-.104-3.543 5.071-3.785 8.152l-.012.145-.138.046c-.675.219-1.91.513-3.341.848-3.565.831-9.49 2.221-9.888 3.519.265.502.6.929.75 1.01l.011-.023.064-.035c2.602-1.298 7.633-2.735 11.319-3.623l.041-.208c.034-.317.15-.525.346-.611.202-.087.438-.029.727.184.092.07.375.283.3.554-.069.242-.352.358-.969.41l-.07.017.006.017Zm.196-.773h-.011s-.07.075-.093.277l-.011.046c.294-.028.432-.069.502-.098l-.104-.086c-.156-.116-.248-.139-.283-.139Z"/><path d="M444.125 245.806c3.335-1.887 4.356-2.464 1.114.663-3.906 4.512-12.179 4.656-12.826-3.173-.161-.692-.328-.929-.513-.715-4.512 4.529-5.983 12.986-9.306 18.179-5.112 2.66-2.925-15.249-2.562-18.024.445-3.854 1.674-6.132 4.852-4.413-.657 5.769-4.379 12.791-2.832 18.704.588-2.775 10.31-23.1 13.402-18.975 2.423 2.775-3.289 14.175 8.666 7.754h.005Z"/><path d="M421.643 261.256c-.317 0-.611-.092-.882-.283-2.845-1.99-1.437-14.481-.941-18.26.318-2.775.993-4.344 2.118-4.938.807-.421 1.834-.3 3.052.357l.127.07-.018.144c-.236 2.054-.842 4.223-1.482 6.519-1.068 3.814-2.17 7.743-1.529 11.302 1.454-4.13 8.319-18.029 12.006-18.848.611-.133 1.142.069 1.534.594.808.923.768 2.66.716 4.5-.052 2.008-.104 4.085 1.079 4.812 1.125.692 3.282.162 6.6-1.615l.104.19-.093-.196c2.764-1.564 3.133-1.748 3.341-1.46.167.225.15.41-1.985 2.475-2.244 2.596-6 3.796-8.919 2.844-2.493-.813-4.01-3-4.275-6.15-.075-.317-.139-.473-.179-.542-2.637 2.683-4.223 6.71-5.764 10.61-1.09 2.763-2.117 5.377-3.484 7.506l-.029.046-.052.029c-.375.196-.727.294-1.056.294h.011Zm1.345-23.291c-.312 0-.595.069-.848.202-.975.508-1.593 2.014-1.893 4.604-.963 7.316-1.344 16.379.756 17.85.392.272.86.272 1.437-.017 1.321-2.083 2.336-4.656 3.415-7.379 1.564-3.969 3.179-8.071 5.891-10.789.132-.155.282-.15.357-.132.225.057.375.329.52.952.253 3 1.661 5.048 3.98 5.804 2.758.9 6.324-.248 8.476-2.729.83-.802 1.396-1.373 1.684-1.714-.519.243-1.465.779-2.515 1.373l-.017.012c-3.514 1.886-5.747 2.394-7.028 1.604-1.39-.86-1.338-3.058-1.28-5.193.04-1.673.086-3.404-.623-4.217-.3-.404-.658-.542-1.108-.444-3.744.825-11.395 16.846-11.92 19.327l-.19.894-.231-.882c-1.015-3.877.191-8.176 1.356-12.33.623-2.221 1.212-4.327 1.454-6.305-.635-.324-1.189-.485-1.673-.485v-.006Z"/><path d="M462.013 240.688c-1.465 2.793-2.93 29.891 3.156 21.532l-.15.011c3.133-4.35 7.968-17.383 10.195-21.133 3.992-4.829-2.735 10.506-3.41 11.787-2.481 4.281-3.946 11.348-8.354 13.258-8.406-1.339-6.456-14.256-6.652-20.787-2.827.825-6.877 13.69-11.262 13.8-5.233-.081-4.16-6.496-2.365-10.246 2.417-6.075 6.536-9.047 11.163-7.743.883.935 1.645.946 2.274.041.801-.514 2.146-6.906 3.046-8.88 5.746-3.957 2.769 5.072 2.359 8.355v.005Zm-13.142 13.051c5.452-6.791 4.448-10.558-.052-7.108-3.906 2.694-7.298 15.658.202 7.096l-.15.012Z"/><path d="m463.481 266.368-.064-.012c-7.2-1.148-6.998-10.483-6.854-17.302.023-1.212.052-2.366.029-3.375-1.073.611-2.4 2.965-3.796 5.452-2.158 3.831-4.604 8.175-7.252 8.244-1.564-.023-2.694-.588-3.369-1.679-1.345-2.169-.566-6.023.802-8.879 2.48-6.231 6.744-9.173 11.417-7.858l.058.018.04.046c.427.45.819.669 1.143.64.276-.023.542-.213.796-.577l.063-.057c.398-.254 1.131-2.839 1.667-4.725.468-1.656.912-3.22 1.293-4.062l.023-.058.052-.034c1.436-.987 2.446-1.252 3.098-.825 1.292.853.617 4.159.023 7.079-.179.871-.346 1.696-.421 2.302l-.023.075c-1.206 2.302-2.268 20.96.525 22.691.513.317 1.171-.024 1.973-1.004l-.133.011.271-.381c1.835-2.55 4.264-8.117 6.41-13.033 1.529-3.507 2.856-6.536 3.773-8.082.756-.918 1.16-1.183 1.46-.981 1.171.784-4.431 12.865-4.494 12.981-.739 1.281-1.379 2.781-2.054 4.373-1.593 3.744-3.237 7.61-6.404 8.983l-.058.023.006.006Zm-6.473-21.024c.04 1.091.017 2.366-.012 3.716-.138 6.64-.335 15.721 6.427 16.858 2.971-1.327 4.569-5.089 6.121-8.735.681-1.604 1.327-3.116 2.077-4.414.797-1.511 4.985-11.336 4.633-12.386-.086.034-.329.19-.871.848-.888 1.5-2.267 4.661-3.733 8.007-2.054 4.703-4.373 10.01-6.196 12.733l.167-.011-.277.381c-1.084 1.494-2.042 2.002-2.844 1.5-3.242-2.014-1.863-20.828-.698-23.228.081-.617.248-1.436.421-2.302.514-2.504 1.212-5.936.162-6.634-.468-.312-1.356-.041-2.568.784-.363.825-.813 2.412-1.246 3.946-.796 2.804-1.321 4.558-1.811 4.945-.324.456-.693.704-1.097.732-.461.029-.94-.213-1.448-.732-4.413-1.206-8.458 1.638-10.846 7.627-1.281 2.677-2.083 6.456-.831 8.475.594.958 1.598 1.448 3 1.471 2.394-.057 4.771-4.292 6.877-8.019 1.633-2.896 3.041-5.395 4.321-5.775l.272-.081v.294Zm-11.666 11.475a.952.952 0 0 1-.26-.034c-.259-.075-.588-.3-.698-.964-.363-2.221 1.927-7.731 4.31-9.375 1.737-1.333 3.063-1.69 3.733-1.004 1.073 1.096-.168 4.298-3.081 8.037l.185-.017-.352.404c-1.737 1.984-3 2.959-3.843 2.959l.006-.006Zm6.219-11.279c-.611 0-1.54.439-2.607 1.252-2.377 1.639-4.454 7.05-4.143 8.954.058.352.191.56.387.618.271.075 1.136-.012 3.3-2.389l-.116.012.318-.393c3.254-4.05 4.188-7.067 3.421-7.852-.133-.138-.323-.202-.565-.202h.005Z"/><path d="M486.595 200.499c3.375.231 1.102 3.738.011 7.413-3.352 9.058-6.202 19.114-8.002 28.438-4.523 26.695-2.423 48.364 15.035 10.627 5.972-13.224 5.147-7.927-.479 3.369-3.692 6.387-10.304 27.393-17.198 15.208-2.533-11.042-.802-23.943.969-35.649 1.512-6.784 4.016-26.954 9.658-29.412l.006.006Z"/><path d="M480.404 269.506c-1.627 0-3.184-1.292-4.627-3.842l-.023-.058c-2.469-10.783-.952-23.054.964-35.73.282-1.275.6-2.988.963-4.978 1.644-8.978 4.125-22.547 8.827-24.595l.046-.023h.052c.848.063 1.414.323 1.72.796.628.969.011 2.631-.704 4.552-.283.761-.577 1.552-.814 2.348-3.386 9.144-6.225 19.235-7.996 28.42-2.925 17.279-2.717 29.568.525 30.578 1.915.594 5.925-2.406 14.1-20.078 3.548-7.852 4.068-7.898 4.241-7.915l.127-.012.109.127c.387.571-2.065 6.34-4.563 11.354-.727 1.258-1.546 3.035-2.493 5.094-2.832 6.145-6.352 13.795-10.333 13.962h-.127.006Zm-4.234-4.027c1.355 2.389 2.78 3.595 4.234 3.595h.11c3.715-.156 7.321-7.991 9.958-13.714.952-2.066 1.777-3.854 2.504-5.118 2.659-5.342 4.142-9.144 4.494-10.471-.513.779-1.621 2.85-3.635 7.298-6.675 14.418-11.585 21.255-14.625 20.314-4.269-1.321-3.11-17.562-.825-31.068 1.777-9.214 4.621-19.327 8.014-28.478.236-.801.53-1.598.819-2.365.675-1.812 1.252-3.375.744-4.165-.219-.341-.658-.537-1.333-.589-4.454 2.031-7.004 15.935-8.521 24.255-.363 1.996-.681 3.715-.963 4.984-1.91 12.606-3.416 24.82-.975 35.522Z"/><path d="M511.765 246.533c-.19-2.55-.34-5.897-.075-8.17 1.713-8.937-10.339 18.953-14.227 14.504l.011.15c-2.809-2.048-.075-22.01 4.835-16.448.346 1.898-7.096 21.733.046 12.335 2.533-3.398 8.545-15.549 12.22-19.558 1.332 1.136-.156 3.825-.577 7.615-.589 3.098-1.056 7.2-.825 10.062 1.044 10.5 9.796-1.904 12.11-5.4 2.855-4.073 3.346-3.86.64.398-3.023 5.717-13.783 17.55-14.152 4.506l-.006.006Z"/><path d="M498.463 253.571c-.265 0-.513-.069-.738-.202v.104l-.376-.277c-1.448-1.056-1.494-6.185-.709-10.54.358-1.974 1.419-6.618 3.548-7.212.756-.214 1.523.121 2.285.986l.04.047.012.057c.109.595-.393 2.464-1.218 5.464-.906 3.294-2.423 8.815-1.656 9.19.081.041.606.122 2.533-2.417.993-1.333 2.51-3.998 4.27-7.079 2.682-4.713 5.729-10.056 7.967-12.496l.139-.156.161.138c.963.825.629 2.268.162 4.27-.243 1.038-.52 2.215-.664 3.531-.554 2.919-1.061 7.073-.825 10.015.231 2.331.86 3.641 1.858 3.889 2.896.715 8.279-7.004 9.86-9.393 2.284-3.265 2.521-3.109 2.706-2.983.184.122.415.277-1.708 3.618-2.106 3.981-8.21 11.279-11.85 10.437-1.691-.393-2.602-2.424-2.706-6.035-.185-2.452-.346-5.862-.075-8.204.202-1.056.173-1.408.144-1.518-.49.249-2.042 2.787-3.416 5.037-3.121 5.118-7.009 11.481-9.6 11.706h-.144v.023Zm-1.269-1.332.432.496c.266.305.577.438.941.404 2.377-.202 6.358-6.733 9.271-11.499 2.527-4.136 3.387-5.463 3.958-5.238.288.109.404.484.115 2.013-.265 2.296-.103 5.677.081 8.112v.011c.098 3.393.894 5.285 2.371 5.631 3.306.768 9.237-6.19 11.378-10.235.807-1.275 1.246-2.048 1.482-2.509-.363.427-.929 1.159-1.754 2.336-2.071 3.127-7.229 10.333-10.321 9.566-1.2-.3-1.933-1.737-2.187-4.269-.236-2.995.272-7.189.831-10.12.144-1.321.421-2.515.669-3.565.404-1.72.699-2.995.127-3.693-2.186 2.481-5.14 7.662-7.754 12.249-1.765 3.098-3.288 5.769-4.298 7.125-1.973 2.602-2.66 2.746-3.069 2.544-1.016-.502-.092-4.165 1.431-9.692.652-2.366 1.263-4.599 1.217-5.216-.629-.698-1.235-.969-1.8-.808-1.292.364-2.533 2.995-3.237 6.877-.732 4.039-.64 8.066.139 9.595v-.098l-.023-.017Z"/><path d="M539.018 241.692c2.683-3.352 14.273-14.019 4.586-10.373-4.511 1.079-9.634 6.802-14.36 8.389-2.203-.595-1.725-3.503-.178-4.904l.011.15c3.635-2.464 16.847-9.105 19.881-4.835.491 2.446-6.017 9.248-8.267 12.496-2.291 3.485-13.743 15.791-2.504 8.989 8.821-4.119 18.704-10.333 26.043-7.166 1.292.929.173 4.42-1.316 2.383-9.236-4.442-26.06 7.137-33.595 11.879-6.882.283.116-5.602 9.71-17.002l-.011-.006Z"/><path d="M528.851 258.919c-1.355 0-2.123-.282-2.411-.882-.721-1.518 2.088-4.697 6.744-9.964 1.696-1.921 3.623-4.096 5.66-6.525.565-.704 1.5-1.708 2.579-2.868 2.365-2.538 6.323-6.79 5.7-7.713-.121-.179-.698-.485-3.45.548-2.337.56-4.893 2.412-7.362 4.206-2.313 1.679-4.713 3.415-7.004 4.183l-.063.023-.064-.018c-.825-.225-1.39-.79-1.581-1.586-.288-1.183.266-2.735 1.31-3.687l.323-.294.017.225c3.82-2.464 16.766-8.948 19.87-4.581l.035.081c.375 1.852-2.816 5.775-5.625 9.237-1.05 1.292-2.043 2.509-2.677 3.427-.514.778-1.454 1.961-2.545 3.334-1.973 2.487-5.284 6.647-4.742 7.264.11.121.75.346 4.494-1.921 1.448-.675 2.931-1.414 4.373-2.123 7.685-3.808 15.63-7.743 21.872-5.054.704.502.779 1.454.641 2.129-.145.692-.514 1.182-.964 1.28-.288.058-.727 0-1.217-.652-8.435-3.998-23.418 5.568-31.478 10.708-.669.427-1.292.825-1.863 1.183l-.047.029h-.057c-.162.011-.318.011-.468.011Zm17.684-28.564c.473 0 .784.127.951.375.75 1.125-1.903 4.125-5.746 8.251-1.073 1.153-2.002 2.151-2.561 2.844a314.032 314.032 0 0 1-5.672 6.536c-4.223 4.778-7.275 8.233-6.681 9.491.22.467 1.033.675 2.412.629l1.812-1.154c8.14-5.198 23.29-14.873 31.945-10.708l.08.069c.289.393.571.583.808.531.271-.058.525-.438.629-.946.121-.588.04-1.333-.427-1.667-6.018-2.591-13.87 1.304-21.468 5.065a178.842 178.842 0 0 1-4.362 2.117c-3.807 2.308-4.673 2.216-5.019 1.829-.727-.825 1.402-3.634 4.725-7.817 1.039-1.31 2.02-2.544 2.527-3.312.646-.934 1.644-2.157 2.7-3.456 2.591-3.19 5.816-7.154 5.55-8.832-2.838-3.837-15.283 2.03-19.552 4.927l-.306.207v-.04c-.715.842-1.079 2.036-.865 2.931.15.629.571 1.061 1.211 1.252 2.21-.756 4.558-2.458 6.826-4.102 2.503-1.818 5.094-3.699 7.494-4.27 1.333-.502 2.313-.75 2.983-.75h.006Z"/></g><defs><clipPath id="a"><path fill="#fff" d="M0 0h565v308H0z"/></clipPath></defs></svg>